<mxfile host="app.diagrams.net" modified="2022-12-23T19:21:18.076Z" agent="5.0 (Windows NT 10.0; Win64; x64) AppleWebKit/537.36 (KHTML, like Gecko) Chrome/108.0.0.0 Safari/537.36" version="20.7.4" etag="7GRFNVZlxu9oR8ofveIZ" type="github">
  <diagram id="nyPQ1WO1QFOYRrJ_ymZw" name="Страница 1">
    <mxGraphModel dx="995" dy="635" grid="1" gridSize="10" guides="1" tooltips="1" connect="1" arrows="1" fold="1" page="1" pageScale="1" pageWidth="827" pageHeight="1169" math="0" shadow="0">
      <root>
        <mxCell id="0" />
        <mxCell id="1" parent="0" />
        <mxCell id="GmaX0CRdHFH-ArGhW6XT-2" value="Worker" style="swimlane;fontStyle=0;childLayout=stackLayout;horizontal=1;startSize=30;horizontalStack=0;resizeParent=1;resizeParentMax=0;resizeLast=0;collapsible=1;marginBottom=0;whiteSpace=wrap;html=1;" vertex="1" parent="1">
          <mxGeometry x="460" y="120" width="140" height="90" as="geometry" />
        </mxCell>
        <mxCell id="GmaX0CRdHFH-ArGhW6XT-3" value="sendMessage(String)" style="text;strokeColor=none;fillColor=none;align=left;verticalAlign=middle;spacingLeft=4;spacingRight=4;overflow=hidden;points=[[0,0.5],[1,0.5]];portConstraint=eastwest;rotatable=0;whiteSpace=wrap;html=1;" vertex="1" parent="GmaX0CRdHFH-ArGhW6XT-2">
          <mxGeometry y="30" width="140" height="30" as="geometry" />
        </mxCell>
        <mxCell id="GmaX0CRdHFH-ArGhW6XT-4" value="getMessage(String)" style="text;strokeColor=none;fillColor=none;align=left;verticalAlign=middle;spacingLeft=4;spacingRight=4;overflow=hidden;points=[[0,0.5],[1,0.5]];portConstraint=eastwest;rotatable=0;whiteSpace=wrap;html=1;" vertex="1" parent="GmaX0CRdHFH-ArGhW6XT-2">
          <mxGeometry y="60" width="140" height="30" as="geometry" />
        </mxCell>
        <mxCell id="GmaX0CRdHFH-ArGhW6XT-6" value="Chat" style="swimlane;fontStyle=0;childLayout=stackLayout;horizontal=1;startSize=30;horizontalStack=0;resizeParent=1;resizeParentMax=0;resizeLast=0;collapsible=1;marginBottom=0;whiteSpace=wrap;html=1;" vertex="1" parent="1">
          <mxGeometry x="240" y="120" width="170" height="60" as="geometry" />
        </mxCell>
        <mxCell id="GmaX0CRdHFH-ArGhW6XT-7" value="sendMessage(String,Worker)" style="text;strokeColor=none;fillColor=none;align=left;verticalAlign=middle;spacingLeft=4;spacingRight=4;overflow=hidden;points=[[0,0.5],[1,0.5]];portConstraint=eastwest;rotatable=0;whiteSpace=wrap;html=1;" vertex="1" parent="GmaX0CRdHFH-ArGhW6XT-6">
          <mxGeometry y="30" width="170" height="30" as="geometry" />
        </mxCell>
        <mxCell id="GmaX0CRdHFH-ArGhW6XT-27" style="edgeStyle=orthogonalEdgeStyle;rounded=0;orthogonalLoop=1;jettySize=auto;html=1;exitX=0.5;exitY=0;exitDx=0;exitDy=0;entryX=0.464;entryY=1.033;entryDx=0;entryDy=0;entryPerimeter=0;" edge="1" parent="1" source="GmaX0CRdHFH-ArGhW6XT-10" target="GmaX0CRdHFH-ArGhW6XT-4">
          <mxGeometry relative="1" as="geometry">
            <Array as="points">
              <mxPoint x="245" y="240" />
              <mxPoint x="525" y="240" />
            </Array>
          </mxGeometry>
        </mxCell>
        <mxCell id="GmaX0CRdHFH-ArGhW6XT-10" value="TaxiOperator" style="swimlane;fontStyle=0;childLayout=stackLayout;horizontal=1;startSize=30;horizontalStack=0;resizeParent=1;resizeParentMax=0;resizeLast=0;collapsible=1;marginBottom=0;whiteSpace=wrap;html=1;" vertex="1" parent="1">
          <mxGeometry x="170" y="280" width="150" height="120" as="geometry" />
        </mxCell>
        <mxCell id="GmaX0CRdHFH-ArGhW6XT-11" value="TaxiOperator(Chat,String)" style="text;strokeColor=none;fillColor=none;align=left;verticalAlign=middle;spacingLeft=4;spacingRight=4;overflow=hidden;points=[[0,0.5],[1,0.5]];portConstraint=eastwest;rotatable=0;whiteSpace=wrap;html=1;" vertex="1" parent="GmaX0CRdHFH-ArGhW6XT-10">
          <mxGeometry y="30" width="150" height="30" as="geometry" />
        </mxCell>
        <mxCell id="GmaX0CRdHFH-ArGhW6XT-12" value="sendMessage(String)" style="text;strokeColor=none;fillColor=none;align=left;verticalAlign=middle;spacingLeft=4;spacingRight=4;overflow=hidden;points=[[0,0.5],[1,0.5]];portConstraint=eastwest;rotatable=0;whiteSpace=wrap;html=1;" vertex="1" parent="GmaX0CRdHFH-ArGhW6XT-10">
          <mxGeometry y="60" width="150" height="30" as="geometry" />
        </mxCell>
        <mxCell id="GmaX0CRdHFH-ArGhW6XT-13" value="getMessage(String)" style="text;strokeColor=none;fillColor=none;align=left;verticalAlign=middle;spacingLeft=4;spacingRight=4;overflow=hidden;points=[[0,0.5],[1,0.5]];portConstraint=eastwest;rotatable=0;whiteSpace=wrap;html=1;" vertex="1" parent="GmaX0CRdHFH-ArGhW6XT-10">
          <mxGeometry y="90" width="150" height="30" as="geometry" />
        </mxCell>
        <mxCell id="GmaX0CRdHFH-ArGhW6XT-26" style="edgeStyle=orthogonalEdgeStyle;rounded=0;orthogonalLoop=1;jettySize=auto;html=1;exitX=0.5;exitY=0;exitDx=0;exitDy=0;entryX=0.464;entryY=1.033;entryDx=0;entryDy=0;entryPerimeter=0;" edge="1" parent="1" source="GmaX0CRdHFH-ArGhW6XT-14" target="GmaX0CRdHFH-ArGhW6XT-4">
          <mxGeometry relative="1" as="geometry">
            <Array as="points">
              <mxPoint x="430" y="240" />
              <mxPoint x="525" y="240" />
            </Array>
          </mxGeometry>
        </mxCell>
        <mxCell id="GmaX0CRdHFH-ArGhW6XT-14" value="TaxiDriver" style="swimlane;fontStyle=0;childLayout=stackLayout;horizontal=1;startSize=30;horizontalStack=0;resizeParent=1;resizeParentMax=0;resizeLast=0;collapsible=1;marginBottom=0;whiteSpace=wrap;html=1;" vertex="1" parent="1">
          <mxGeometry x="360" y="280" width="140" height="120" as="geometry" />
        </mxCell>
        <mxCell id="GmaX0CRdHFH-ArGhW6XT-15" value="&lt;span style=&quot;text-align: center;&quot;&gt;TaxiDriver&lt;/span&gt;(Chat,String)" style="text;strokeColor=none;fillColor=none;align=left;verticalAlign=middle;spacingLeft=4;spacingRight=4;overflow=hidden;points=[[0,0.5],[1,0.5]];portConstraint=eastwest;rotatable=0;whiteSpace=wrap;html=1;" vertex="1" parent="GmaX0CRdHFH-ArGhW6XT-14">
          <mxGeometry y="30" width="140" height="30" as="geometry" />
        </mxCell>
        <mxCell id="GmaX0CRdHFH-ArGhW6XT-16" value="sendMessage(String)" style="text;strokeColor=none;fillColor=none;align=left;verticalAlign=middle;spacingLeft=4;spacingRight=4;overflow=hidden;points=[[0,0.5],[1,0.5]];portConstraint=eastwest;rotatable=0;whiteSpace=wrap;html=1;" vertex="1" parent="GmaX0CRdHFH-ArGhW6XT-14">
          <mxGeometry y="60" width="140" height="30" as="geometry" />
        </mxCell>
        <mxCell id="GmaX0CRdHFH-ArGhW6XT-17" value="getMessage(String)" style="text;strokeColor=none;fillColor=none;align=left;verticalAlign=middle;spacingLeft=4;spacingRight=4;overflow=hidden;points=[[0,0.5],[1,0.5]];portConstraint=eastwest;rotatable=0;whiteSpace=wrap;html=1;" vertex="1" parent="GmaX0CRdHFH-ArGhW6XT-14">
          <mxGeometry y="90" width="140" height="30" as="geometry" />
        </mxCell>
        <mxCell id="GmaX0CRdHFH-ArGhW6XT-28" style="edgeStyle=orthogonalEdgeStyle;rounded=0;orthogonalLoop=1;jettySize=auto;html=1;exitX=0.5;exitY=0;exitDx=0;exitDy=0;entryX=0.471;entryY=1;entryDx=0;entryDy=0;entryPerimeter=0;" edge="1" parent="1" source="GmaX0CRdHFH-ArGhW6XT-18" target="GmaX0CRdHFH-ArGhW6XT-7">
          <mxGeometry relative="1" as="geometry">
            <Array as="points">
              <mxPoint x="645" y="260" />
              <mxPoint x="320" y="260" />
            </Array>
          </mxGeometry>
        </mxCell>
        <mxCell id="GmaX0CRdHFH-ArGhW6XT-18" value="TaxiDriverChat" style="swimlane;fontStyle=0;childLayout=stackLayout;horizontal=1;startSize=30;horizontalStack=0;resizeParent=1;resizeParentMax=0;resizeLast=0;collapsible=1;marginBottom=0;whiteSpace=wrap;html=1;" vertex="1" parent="1">
          <mxGeometry x="560" y="280" width="170" height="90" as="geometry" />
        </mxCell>
        <mxCell id="GmaX0CRdHFH-ArGhW6XT-20" value="AddTaxiDriverToChat(Worker)" style="text;strokeColor=none;fillColor=none;align=left;verticalAlign=middle;spacingLeft=4;spacingRight=4;overflow=hidden;points=[[0,0.5],[1,0.5]];portConstraint=eastwest;rotatable=0;whiteSpace=wrap;html=1;" vertex="1" parent="GmaX0CRdHFH-ArGhW6XT-18">
          <mxGeometry y="30" width="170" height="30" as="geometry" />
        </mxCell>
        <mxCell id="GmaX0CRdHFH-ArGhW6XT-21" value="sendMessage(String)" style="text;strokeColor=none;fillColor=none;align=left;verticalAlign=middle;spacingLeft=4;spacingRight=4;overflow=hidden;points=[[0,0.5],[1,0.5]];portConstraint=eastwest;rotatable=0;whiteSpace=wrap;html=1;" vertex="1" parent="GmaX0CRdHFH-ArGhW6XT-18">
          <mxGeometry y="60" width="170" height="30" as="geometry" />
        </mxCell>
        <mxCell id="GmaX0CRdHFH-ArGhW6XT-22" value="App" style="swimlane;fontStyle=0;childLayout=stackLayout;horizontal=1;startSize=30;horizontalStack=0;resizeParent=1;resizeParentMax=0;resizeLast=0;collapsible=1;marginBottom=0;whiteSpace=wrap;html=1;" vertex="1" parent="1">
          <mxGeometry x="360" y="480" width="140" height="60" as="geometry" />
        </mxCell>
        <mxCell id="GmaX0CRdHFH-ArGhW6XT-23" value="main(String[])" style="text;strokeColor=none;fillColor=none;align=left;verticalAlign=middle;spacingLeft=4;spacingRight=4;overflow=hidden;points=[[0,0.5],[1,0.5]];portConstraint=eastwest;rotatable=0;whiteSpace=wrap;html=1;" vertex="1" parent="GmaX0CRdHFH-ArGhW6XT-22">
          <mxGeometry y="30" width="140" height="30" as="geometry" />
        </mxCell>
        <mxCell id="GmaX0CRdHFH-ArGhW6XT-29" value="" style="endArrow=none;dashed=1;html=1;rounded=0;exitX=0.5;exitY=0;exitDx=0;exitDy=0;entryX=0.5;entryY=1.067;entryDx=0;entryDy=0;entryPerimeter=0;" edge="1" parent="1" source="GmaX0CRdHFH-ArGhW6XT-22" target="GmaX0CRdHFH-ArGhW6XT-17">
          <mxGeometry width="50" height="50" relative="1" as="geometry">
            <mxPoint x="390" y="320" as="sourcePoint" />
            <mxPoint x="440" y="270" as="targetPoint" />
          </mxGeometry>
        </mxCell>
        <mxCell id="GmaX0CRdHFH-ArGhW6XT-30" value="" style="endArrow=none;dashed=1;html=1;rounded=0;entryX=0.5;entryY=1.133;entryDx=0;entryDy=0;entryPerimeter=0;" edge="1" parent="1" target="GmaX0CRdHFH-ArGhW6XT-21">
          <mxGeometry width="50" height="50" relative="1" as="geometry">
            <mxPoint x="430" y="480" as="sourcePoint" />
            <mxPoint x="440" y="412.01" as="targetPoint" />
            <Array as="points">
              <mxPoint x="430" y="440" />
              <mxPoint x="645" y="440" />
            </Array>
          </mxGeometry>
        </mxCell>
        <mxCell id="GmaX0CRdHFH-ArGhW6XT-31" value="" style="endArrow=none;dashed=1;html=1;rounded=0;entryX=0.5;entryY=1.1;entryDx=0;entryDy=0;entryPerimeter=0;exitX=0.5;exitY=0;exitDx=0;exitDy=0;" edge="1" parent="1" source="GmaX0CRdHFH-ArGhW6XT-22" target="GmaX0CRdHFH-ArGhW6XT-13">
          <mxGeometry width="50" height="50" relative="1" as="geometry">
            <mxPoint x="440" y="490" as="sourcePoint" />
            <mxPoint x="655" y="383.99" as="targetPoint" />
            <Array as="points">
              <mxPoint x="430" y="440" />
              <mxPoint x="245" y="440" />
            </Array>
          </mxGeometry>
        </mxCell>
        <mxCell id="GmaX0CRdHFH-ArGhW6XT-32" value="" style="endArrow=classic;html=1;rounded=0;exitX=0.75;exitY=0;exitDx=0;exitDy=0;entryX=0.253;entryY=1.033;entryDx=0;entryDy=0;entryPerimeter=0;" edge="1" parent="1" source="GmaX0CRdHFH-ArGhW6XT-10" target="GmaX0CRdHFH-ArGhW6XT-7">
          <mxGeometry relative="1" as="geometry">
            <mxPoint x="360" y="290" as="sourcePoint" />
            <mxPoint x="460" y="290" as="targetPoint" />
          </mxGeometry>
        </mxCell>
        <mxCell id="GmaX0CRdHFH-ArGhW6XT-33" value="1" style="edgeLabel;resizable=0;html=1;align=center;verticalAlign=middle;" connectable="0" vertex="1" parent="GmaX0CRdHFH-ArGhW6XT-32">
          <mxGeometry relative="1" as="geometry" />
        </mxCell>
        <mxCell id="GmaX0CRdHFH-ArGhW6XT-34" value="" style="endArrow=classic;html=1;rounded=0;exitX=0.25;exitY=0;exitDx=0;exitDy=0;entryX=0.911;entryY=0.995;entryDx=0;entryDy=0;entryPerimeter=0;" edge="1" parent="1" source="GmaX0CRdHFH-ArGhW6XT-14" target="GmaX0CRdHFH-ArGhW6XT-7">
          <mxGeometry relative="1" as="geometry">
            <mxPoint x="292.5" y="290" as="sourcePoint" />
            <mxPoint x="293.01" y="190.99" as="targetPoint" />
          </mxGeometry>
        </mxCell>
        <mxCell id="GmaX0CRdHFH-ArGhW6XT-35" value="1" style="edgeLabel;resizable=0;html=1;align=center;verticalAlign=middle;" connectable="0" vertex="1" parent="GmaX0CRdHFH-ArGhW6XT-34">
          <mxGeometry relative="1" as="geometry" />
        </mxCell>
        <mxCell id="GmaX0CRdHFH-ArGhW6XT-38" value="" style="endArrow=classic;html=1;rounded=0;exitX=0;exitY=0;exitDx=0;exitDy=0;entryX=0.72;entryY=1.044;entryDx=0;entryDy=0;entryPerimeter=0;" edge="1" parent="1" source="GmaX0CRdHFH-ArGhW6XT-18" target="GmaX0CRdHFH-ArGhW6XT-4">
          <mxGeometry relative="1" as="geometry">
            <mxPoint x="596.01" y="284.96000000000004" as="sourcePoint" />
            <mxPoint x="597.96" y="220" as="targetPoint" />
          </mxGeometry>
        </mxCell>
        <mxCell id="GmaX0CRdHFH-ArGhW6XT-39" value="1" style="edgeLabel;resizable=0;html=1;align=center;verticalAlign=middle;" connectable="0" vertex="1" parent="GmaX0CRdHFH-ArGhW6XT-38">
          <mxGeometry relative="1" as="geometry" />
        </mxCell>
        <mxCell id="GmaX0CRdHFH-ArGhW6XT-40" value="" style="endArrow=classic;html=1;rounded=0;entryX=0.914;entryY=1;entryDx=0;entryDy=0;entryPerimeter=0;exitX=0.163;exitY=-0.004;exitDx=0;exitDy=0;exitPerimeter=0;" edge="1" parent="1" source="GmaX0CRdHFH-ArGhW6XT-18" target="GmaX0CRdHFH-ArGhW6XT-4">
          <mxGeometry relative="1" as="geometry">
            <mxPoint x="590" y="270" as="sourcePoint" />
            <mxPoint x="587.96" y="210" as="targetPoint" />
          </mxGeometry>
        </mxCell>
        <mxCell id="GmaX0CRdHFH-ArGhW6XT-41" value="1" style="edgeLabel;resizable=0;html=1;align=center;verticalAlign=middle;" connectable="0" vertex="1" parent="GmaX0CRdHFH-ArGhW6XT-40">
          <mxGeometry relative="1" as="geometry" />
        </mxCell>
      </root>
    </mxGraphModel>
  </diagram>
</mxfile>
